# xmcd CD database file
#
# Track frame offsets:
#	183
#	19563
#	36088
#	54505
#	72875
#	100023
#	112428
#	141040
#	162163
#	184603
#	202405
#	228433
#	244385
#	262738
#	273963
#	288948
#	303903
#
# Disc length: 4269 seconds
#
# Revision: 1
# Processed by: cddbd v1.5.1PL0 Copyright (c) Steve Scherf et al.
# Submitted via: CDex 1.51
#
DISCID=f010ab11
DTITLE=Christian Christl - CC-The Boogie Man Plays The Christian Christl Songbook
DYEAR=1992
DGENRE=Blues
TTITLE0=On The Road
TTITLE1=Breath Taking Boogie Shaking
TTITLE2=Close My Eyes
TTITLE3=The Record
TTITLE4=Day After Blues
TTITLE5=Tree Top Blues
TTITLE6=Your Mama Was Right
TTITLE7=Let's Move Together
TTITLE8=You Can't Take It With You
TTITLE9=CC Shimme
TTITLE10=I Don't Believe In Many Things
TTITLE11=I'm Gone
TTITLE12=Swing That Boogie
TTITLE13=Little Melodie
TTITLE14=Fairwell Blues
TTITLE15=Boogie Woogie Too
TTITLE16=Time To Say Goodbye
EXTD=YEAR: 1992
EXTT0=
EXTT1=
EXTT2=
EXTT3=
EXTT4=
EXTT5=
EXTT6=
EXTT7=
EXTT8=
EXTT9=
EXTT10=
EXTT11=
EXTT12=
EXTT13=
EXTT14=
EXTT15=
EXTT16=
PLAYORDER=
